<svg width="16" height="16" fill="none" xmlns="http://www.w3.org/2000/svg"><g clip-path="url(#clip0)" fill="#4479BC"><path d="M15.304 0H4.87a.522.522 0 00-.522.522v10.782c0 .288.234.522.522.522h10.434a.522.522 0 00.522-.522V.522A.522.522 0 0015.304 0zm-.521 4.174h-1.566a.522.522 0 000 1.043h1.566v5.566H8.174V9.217a.522.522 0 00-1.043 0v1.566H5.39v-9.74h1.74v5.74a.522.522 0 001.043 0V5.217h2.609a.522.522 0 000-1.043H8.174v-3.13h6.609v3.13zm.89 9.892l-1.043-1.044a.522.522 0 00-.738.738l.153.153H4.042l.153-.153a.522.522 0 10-.738-.737l-1.043 1.043a.523.523 0 000 .738l1.043 1.043a.522.522 0 10.738-.737l-.153-.153h10.003l-.153.152a.522.522 0 10.738.738l1.043-1.043a.523.523 0 000-.738zM2.414 10.935l-.153.153V1.781l.153.153a.522.522 0 10.738-.738L2.108.153a.522.522 0 00-.738 0L.327 1.196a.522.522 0 10.738.738l.153-.153v9.307l-.153-.153a.522.522 0 00-.738.738l1.043 1.044a.522.522 0 00.738 0l1.044-1.044a.522.522 0 10-.738-.738z"/></g><defs><clipPath id="clip0"><path fill="#fff" d="M0 0h16v16H0z"/></clipPath></defs></svg>