<svg width="14" height="17" fill="none" xmlns="http://www.w3.org/2000/svg"><path d="M7 9a2 2 0 100-4 2 2 0 000 4z" fill="#181818"/><path fill-rule="evenodd" clip-rule="evenodd" d="M5.591 15.069c.404.358.684.606.709.631.4.4 1 .4 1.4.1.05-.05 1.075-.975 2.1-1.9 1.025-.925 2.05-1.85 2.1-1.9 1.4-1.3 2.1-3.1 2.1-5 0-3.9-3.1-7-7-7S0 3.1 0 7c0 1.9.7 3.7 2.1 4.9 0 .075 2.293 2.107 3.491 3.169zM7 13.7l-3.4-3C2.6 9.7 2 8.4 2 7c0-2.8 2.2-4.9 5-4.9s5 2.2 5 5c0 1.4-.6 2.6-1.6 3.6l-3.4 3z" fill="#181818"/></svg>