<svg width="16" height="16" fill="none" xmlns="http://www.w3.org/2000/svg"><g clip-path="url(#clip0)" fill="#4479BC"><path d="M15.995 6.921a1.397 1.397 0 00-.486-.96l-1.384-1.186v-3.37a.469.469 0 00-.47-.47h-1.874a.463.463 0 00-.463.47v.96L8.946.343A1.399 1.399 0 007.117.342L.491 5.962A1.406 1.406 0 00.34 7.944a1.42 1.42 0 001.542.41v7.174c0 .259.204.469.463.469h11.312c.259 0 .468-.21.468-.469V8.355a1.405 1.405 0 001.871-1.434zM12.25 1.873h.943v2.099l-.943-.804V1.873zM9.912 15.06H6.094v-3.756h3.818v3.756zm3.281 0h-2.35v-4.218a.469.469 0 00-.468-.469h-4.75a.463.463 0 00-.463.469v4.218h-2.35V7.68L8.03 3.255l5.164 4.42v7.385zm1.756-7.726a.469.469 0 01-.66.051L8.335 2.283a.469.469 0 00-.608-.002L1.712 7.385a.469.469 0 01-.612-.71l6.626-5.62a.467.467 0 01.61 0L14.9 6.673a.47.47 0 01.05.661z"/><path d="M8.5 13.185a.469.469 0 100-.937.469.469 0 000 .938z"/></g><defs><clipPath id="clip0"><path fill="#fff" d="M0 0h16v16H0z"/></clipPath></defs></svg>