<svg width="4" height="9" fill="none" xmlns="http://www.w3.org/2000/svg"><path d="M2.025 8.018c-.392 0-.589-.229-.589-.687 0-.123.02-.295.062-.515L2 4.263c.024-.115.037-.209.037-.282 0-.107-.02-.185-.062-.234a.188.188 0 00-.16-.086c-.171 0-.404.164-.699.491-.008.009-.02.013-.037.013a.083.083 0 01-.073-.037c-.017-.033-.017-.062 0-.086.294-.344.56-.593.798-.749.237-.155.47-.233.699-.233.393 0 .59.213.59.638 0 .14-.017.278-.05.418l-.515 2.7a1.337 1.337 0 00-.025.282c0 .196.061.294.184.294a.464.464 0 00.27-.11c.107-.074.233-.18.38-.32.017-.016.033-.024.05-.024.024 0 .045.017.061.05.016.024.012.048-.012.073-.278.327-.528.569-.749.724a1.109 1.109 0 01-.663.233zm.823-6.234a.723.723 0 01-.516-.184c-.122-.131-.184-.307-.184-.528 0-.196.062-.356.184-.479A.723.723 0 012.848.41c.212 0 .376.062.49.184a.647.647 0 01.185.479c0 .229-.062.405-.184.528-.115.122-.279.184-.491.184z" fill="#fff"/></svg>