<svg width="16" height="16" fill="none" xmlns="http://www.w3.org/2000/svg"><path fill-rule="evenodd" clip-rule="evenodd" d="M10.925 14.388l3.463-3.463c.78-.78.78-2.048 0-2.828L7.903 1.612a2.001 2.001 0 00-2.828 0L1.612 5.075a2.001 2.001 0 000 2.828l6.485 6.485c.78.78 2.048.78 2.828 0zm-1.414-1.414L3.026 6.489l3.463-3.463 6.486 6.484-3.464 3.464z" fill="#181818"/><path d="M6 16H5c-2.757 0-5-2.243-5-5v-1h2v1c0 1.654 1.346 3 3 3h1v2zm4-16h1c2.757 0 5 2.243 5 5v1h-2V5c0-1.654-1.346-3-3-3h-1V0z" fill="#181818"/></svg>