<svg width="16" height="16" fill="none" xmlns="http://www.w3.org/2000/svg"><path d="M14.094 8.841H11.72a.625.625 0 100 1.25h.866L9.588 13.09a.625.625 0 10.884.884l2.998-2.998v.866a.625.625 0 101.25 0V9.466a.626.626 0 00-.626-.625zm1.281-6.997h-3.688a.625.625 0 00-.624.625V5.53H8a.625.625 0 00-.625.625V9.22H4.313a.625.625 0 00-.625.625v3.062H.625a.625.625 0 000 1.25h3.688a.625.625 0 00.625-.625V10.47H8a.625.625 0 00.625-.625V6.78h3.063a.625.625 0 00.624-.625V3.094h3.063a.625.625 0 100-1.25z" fill="#4479BC"/></svg>